<svg width="212" height="50" viewBox="0 0 212 50" fill="none" xmlns="http://www.w3.org/2000/svg">
<g clip-path="url(#clip0_566_1764)">
<g clip-path="url(#clip1_566_1764)">
<path d="M207.831 34.6417C207.101 36.8385 203.538 38.6811 201.172 39.1062C202.132 37.4803 204.878 33.8307 207.073 33.559C207.644 33.4881 208.048 33.9881 207.831 34.6456M67.9761 45.9606C67.4789 46.37 66.4882 46.807 66.4416 45.7559C66.4222 45.2834 66.5621 44.7873 66.7019 44.3425C66.9661 43.5275 67.3429 42.7519 67.7508 42.0078C68.7414 40.1968 69.9496 38.5078 71.2509 36.9291C72.3892 35.5472 73.6323 34.0866 75.194 33.244C75.3804 33.1417 75.6368 33.0629 75.7767 33.2244C75.8699 33.3307 75.866 33.496 75.8466 33.6377C75.7223 34.5826 75.26 35.496 74.8599 36.3385C74.6151 36.8543 74.3587 37.3661 74.0868 37.8622C72.9952 39.8267 71.1033 42.496 70.2875 43.5472C69.8097 44.1259 68.8851 45.2125 67.9761 45.9566M85.8187 41.3779C87.901 39.0984 90.1347 36.307 91.5449 34.5866C91.5682 35.7598 91.3817 37.3149 90.8611 38.6889C89.9094 41.3622 88.4099 43.5078 87.0036 44.811C87.4814 44.37 87.563 43.37 87.3804 42.7834C87.1434 42.0196 86.5258 41.5708 85.8187 41.3779ZM104.333 46.2283C104.244 46.1299 104.034 45.6456 104.528 44.0354C105.386 41.0826 108.614 36.7086 111.882 34.4409C111.485 36.0826 112.344 37.807 113.377 38.6338C111.446 42.4015 107.977 45.5905 105.406 46.3661C104.594 46.496 104.466 46.4015 104.337 46.2283M114.325 33.8503C115.063 34 114.48 36.0551 114.131 36.7362C113.567 36.1889 113.148 33.6141 114.325 33.8503ZM169.885 28.9409C171.78 27.6299 172.313 24.7874 170.211 23.3779C169.473 22.7716 168.288 22.7086 167.437 23.0866C165.802 23.807 164.936 25.5472 165.184 26.9685C165.2 27.0669 165.215 27.1614 165.239 27.2559C165.666 29.0629 167.585 29.9566 169.228 29.2874C169.457 29.1929 169.675 29.0787 169.885 28.9409ZM207.839 43.0787C207.54 42.8818 207.163 42.8818 206.864 43.0905C204.661 44.6181 201.736 47.0196 199.18 46.6692C198.741 46.6023 198.305 46.248 198.337 45.5708C198.387 44.5354 198.756 43.5433 200.077 41.2795C201.522 41.059 203.158 40.9055 204.544 40.4055C206.537 39.6968 208.2 38.4842 209.385 36.937C210.212 35.7637 210.791 34.0669 210.41 32.7204C209.905 30.5669 207.843 30.2677 206.712 30.2677C203.441 30.2677 199.642 32.6771 196.619 36.3937C195.78 37.6023 194.549 39.3661 194.001 39.9094C192.234 41.6614 190.462 43.6102 188.803 44.8976C188.496 45.1338 186.601 46.6377 185.556 46.8503C185.218 46.9173 184.95 46.5669 185.07 46.2283C185.424 45.2401 186.62 43.5157 186.884 43.1299C186.884 43.1299 203.033 17.7992 207.011 11.559C207.384 10.9724 206.988 10.1811 206.316 10.1811H202.26C201.429 10.1811 200.648 10.622 200.19 11.3543L185.649 34.4685C183.699 37.2519 180.68 40.7637 178.287 43.0157C177.907 43.37 174.542 46.437 173.039 46.7559C172.693 46.8307 172.41 46.4724 172.534 46.122C172.884 45.1299 174.08 43.4291 174.348 43.0275C174.348 43.0275 190.435 17.7913 194.401 11.5629C194.778 10.9763 194.378 10.1889 193.706 10.1889H189.67C188.831 10.1889 188.05 10.6377 187.587 11.3779L175.937 30.1811C173.94 33.4055 171.602 36.3818 168.964 39.0433C165.903 42.1377 162.014 45.8464 160.313 46.5905C159.955 46.744 159.602 46.4173 159.648 46.0118C159.893 43.8149 166.338 34.9645 168.548 31.9881C168.844 31.5866 168.572 31.0039 168.094 31.0039H163.945C163.292 31.0039 162.682 31.3425 162.313 31.9094L159.388 36.3818C158.514 36.9488 155.348 37.622 156.987 35.374C157.842 34.2047 158.704 32.9094 159.427 31.6496C159.586 31.3661 159.4 31.0078 159.085 31.0078H158.568C157.896 31.0078 157.263 31.3543 156.886 31.9409C155.099 34.7283 151.537 39.1377 149.87 40.685C149.105 41.4055 143.946 46.1456 142.606 46.1692C142.416 46.1692 142.276 45.9803 142.315 45.7834C142.598 44.3188 144.548 41.1811 146.06 38.7795C147.586 36.3503 149.637 33.5472 150.748 32.059C151.067 31.6299 150.779 31.0039 150.263 31.0039H145.791C145.154 31.0039 144.548 31.307 144.144 31.8267C142.629 33.7677 141.161 35.8818 139.999 38.0393C137.734 40.6653 135.295 43.1259 133.283 44.7519C132.983 44.9921 131.713 45.9881 130.761 46.4055C130.361 46.5787 129.977 46.1299 130.194 45.7204C132.121 42.1771 137.645 37.4724 136.662 33.0078C136.371 31.6771 135.559 30.7165 134.281 30.3622C132.401 29.8779 129.949 31.5118 128.504 32.6811C128.699 32.3582 128.901 32.0196 129.075 31.7322C129.27 31.4173 129.052 30.9999 128.695 30.9999H124.488C123.769 30.9999 123.101 31.3897 122.724 32.0354L121.43 34.244C120.113 35.5393 117.678 37.4212 115.902 37.3779C116.508 35.5748 116.539 33.8228 115.821 32.8858C115.44 32.3464 115.036 32.1692 114.737 32.0629L114.504 31.9645C113.917 30.3425 112.511 30.2677 111.516 30.2677C107.799 30.2677 103.452 33.4606 100.973 37.0944C100.297 38.0866 99.5552 39.0236 98.7045 39.8503C97.7838 40.744 96.529 41.9527 95.045 42.9015C95.4024 42.3425 95.7132 41.6574 95.9774 40.996C97.2477 38.0275 96.428 33.4566 94.7925 30.9842C95.4257 30.622 96.0589 29.7677 95.9657 28.8031C95.8608 27.7007 94.8741 26.9527 93.8913 27.3267C92.9278 27.6889 90.698 31.0866 90.1774 31.7322C81.9418 41.933 76.9033 46.9448 75.8583 46.1141C75.124 45.5078 76.7051 43.2047 77.0392 42.6181C77.0392 42.6181 93.5105 17 97.1777 11.2952C97.4846 10.8188 97.1583 10.1771 96.6183 10.1771H92.8929C91.9644 10.1771 91.0981 10.6614 90.5776 11.4763C87.9826 15.5433 80.046 27.9685 77.7424 31.6338C77.2878 30.3031 76.305 30.2874 75.2289 30.2755C72.3503 30.3031 68.6637 31.1023 65.214 35.2559C64.3788 36.2637 63.5358 37.3661 62.922 38.4921C62.3471 39.5433 61.6168 40.4842 60.7893 41.3267C58.4857 43.6771 54.4028 47.5039 53.5443 46.1023C53.0392 45.307 54.6786 43.0984 55.0127 42.6102C57.5067 38.9842 60.1095 35.4448 62.6695 31.8661C62.9259 31.5078 62.6851 30.996 62.2578 30.996H57.2542C56.7298 30.996 56.2364 31.2598 55.9217 31.7047L52.0292 37.2559C51.0075 38.7716 48.9952 41.5393 47.0567 43.6023C46.711 43.9724 43.8479 47.0078 43.1603 45.9881C42.0998 44.4251 49.7528 34.8307 52.1768 31.8503C52.4526 31.5118 52.2235 30.996 51.8039 30.996C50.5452 30.996 48.4708 30.996 47.2082 30.996C46.5129 30.996 45.8563 31.3267 45.4251 31.9055C42.9117 35.2755 40.5265 39.5905 39.6874 41.1496C39.4232 41.6456 39.128 42.122 38.7939 42.5669C36.1639 46.0551 33.0173 47.1574 31.475 47.2834C31.036 47.3188 30.7175 46.8385 30.9078 46.4173C31.1137 45.9685 31.3818 45.4999 31.5411 45.2125L54.3678 6.72436C54.9272 5.74405 55.4983 4.34641 53.8084 4.31885L51.9088 4.30704C50.5841 4.3031 49.9703 4.88972 48.8709 6.17712C47.8259 7.40546 36.3465 23.2755 29.0276 36.6456L25.5197 36.622C29.6841 30.3622 35.5812 17.1732 32.9357 9.88578C30.364 1.96846 22.6372 -0.133906 18.4572 0.00782592C15.0425 -0.0709142 9.74374 1.14956 5.3734 4.47633C4.06035 5.39759 1.56634 7.42515 1.18175 8.37003C0.688392 9.37003 2.01309 10.311 2.76285 9.26373C6.18142 5.08657 11.0179 2.68105 17.2413 2.29523C22.6489 1.94483 26.5336 5.20468 27.4776 8.72436C29.3617 14.8937 22.0351 29.1456 18.6942 34.1259C17.8473 35.4606 17.7735 35.6732 17.0043 36.6063L12.1717 36.5787C11.3792 36.559 10.7266 37.3149 10.7072 38.0551C10.6877 38.807 11.3209 39.5748 12.1018 39.6023L14.5958 39.6614C12.7777 41.8543 11.0141 43.5511 9.1688 45.0236C7.05938 46.6535 5.33843 47.6062 3.83115 47.5866C3.20182 47.5866 2.33552 47.3031 2.33552 46.5118C2.33552 45.5787 3.60195 45.0275 3.99043 44.933C4.39444 44.807 4.70522 44.4921 4.77126 44.0433C4.86449 43.3937 4.39833 42.7007 3.73403 42.7952C2.23841 42.9842 0.676737 44.2362 0.257185 45.7992C0.0784864 46.4645 0.10568 47.1968 0.362073 47.8385C0.979748 49.4015 2.5453 49.8188 3.9982 49.8937C8.52393 50.3503 15.2912 47.1968 22.8392 39.8661C22.8392 39.8661 25.3488 39.9212 27.6718 39.9842C27.1319 41.5314 26.6307 43.1377 26.553 44.7992C26.4831 46.3031 26.7395 47.9606 27.9865 48.8818C29.1714 49.7559 30.8224 49.5314 32.1665 49.248C33.6544 48.933 35.0917 48.3307 36.3892 47.4999C37.2788 46.9291 38.1063 46.244 38.8405 45.4645C38.8405 45.4645 38.5103 49.059 41.218 49.059C45.7748 49.059 49.1817 44.0984 49.1856 44.0944C48.5524 46.6299 49.9159 49.0433 52.4604 49.0472C55.0826 49.0551 58.3109 46.6535 61.5507 43.5118C61.5274 44.3543 61.6207 45.1574 61.8421 45.9133C62.2811 47.6614 63.2251 48.7519 64.4526 48.9763C67.541 49.5433 70.1321 46.4606 72.0551 44.4763C71.6122 48.2047 73.3798 49.0314 74.821 49.0314C76.8916 49.0314 79.1836 47.5314 81.4872 45.5984C81.5222 45.9685 81.6116 46.311 81.7553 46.5866C82.4779 48.1141 83.5811 49.0314 85.9314 49.0433C90.3095 49.059 94.4895 46.2244 99.0852 42.122C98.7938 43.7283 98.887 45.2204 99.5746 46.5944C100.495 48.4212 101.828 49.0511 103.3 49.0511C108.579 49.0511 113.455 43.0669 115.168 39.3346C116.341 39.4881 117.573 39.3031 118.812 38.6889L113.529 47.6535C113.284 48.0669 113.567 48.6023 114.03 48.6023H118.031C118.641 48.6023 119.208 48.2677 119.531 47.7204C120.723 45.685 121.873 43.7559 123.248 41.8464C126.092 37.6968 129.681 33.2913 132.094 32.5826C132.517 32.4566 132.847 32.9763 132.595 33.3543C132.502 33.4921 132.393 33.6377 132.28 33.7716C130.839 35.4763 129.289 37.3031 127.945 39.1062C126.053 41.7165 125.086 44.5511 125.836 46.6811C126.243 48.0511 127.23 48.7204 128.298 48.9724C131.064 49.5866 134.895 46.4409 137.886 43.4055C137.54 44.937 137.54 46.1771 137.836 47.0629C138.216 48.2362 139.117 49.0354 140.473 49.0354C144.766 49.1456 152.05 41.4803 153.813 39.433L154.952 38.1417C155.554 39.0157 156.564 39.248 157.512 39.1653C155.496 42.6968 154.963 45.6102 155.453 47.1377C155.857 48.4488 156.91 49.0393 158.417 49.0393C161.645 49.0393 165.343 46.4173 168.579 43.0393C168.02 44.7125 167.997 46.1299 168.556 47.5944C169.042 48.6377 169.85 49.0393 170.864 49.0393C173.703 49.0393 177.596 46.6653 181.158 43.0275C180.49 44.7716 180.517 46.6023 181.088 47.7047C181.582 48.7519 182.813 49.059 183.831 49.0433C186.64 49.059 190.078 46.8188 193.589 43.2559C193.469 44.3818 193.384 45.1889 193.71 46.1968C194.308 48.0275 195.598 48.6732 197.008 48.9291C200.757 49.6456 204.727 46.9685 207.881 44.6535C208.414 44.2637 208.394 43.4291 207.846 43.0669" fill="white"/>
<path d="M208.289 46.3425C208.441 46.0669 208.651 45.8503 208.915 45.6929C209.179 45.5393 209.474 45.4606 209.8 45.4606C210.127 45.4606 210.422 45.5393 210.686 45.6929C210.95 45.8464 211.16 46.0629 211.312 46.3425C211.463 46.6181 211.541 46.9291 211.541 47.2755C211.541 47.622 211.463 47.9291 211.312 48.2086C211.16 48.4842 210.95 48.7007 210.686 48.8582C210.422 49.0118 210.127 49.0905 209.8 49.0905C209.474 49.0905 209.179 49.0118 208.915 48.8582C208.651 48.7047 208.441 48.4881 208.289 48.2086C208.138 47.933 208.064 47.622 208.064 47.2755C208.064 46.9291 208.138 46.622 208.289 46.3425ZM208.6 48.0236C208.72 48.248 208.884 48.4212 209.093 48.5433C209.303 48.6692 209.536 48.7322 209.797 48.7322C210.057 48.7322 210.29 48.6692 210.5 48.5433C210.709 48.4173 210.877 48.244 210.993 48.0236C211.114 47.7992 211.172 47.5511 211.172 47.2755C211.172 46.9999 211.114 46.748 210.993 46.5275C210.873 46.3031 210.709 46.1299 210.5 46.0078C210.29 45.8818 210.057 45.8188 209.797 45.8188C209.536 45.8188 209.303 45.8818 209.093 46.0078C208.884 46.1338 208.72 46.307 208.6 46.5275C208.48 46.7519 208.421 46.9999 208.421 47.2755C208.421 47.5511 208.48 47.8031 208.6 48.0236ZM209.556 48.3031H209.008V46.248H209.835C210.01 46.248 210.158 46.2795 210.286 46.3464C210.414 46.4133 210.511 46.4999 210.581 46.6062C210.651 46.7125 210.682 46.8306 210.682 46.9566C210.682 47.1692 210.593 47.3621 210.414 47.5275C210.391 47.5472 210.364 47.5669 210.329 47.5866L210.659 48.2992H210.103L209.87 47.7322H209.556V48.2992V48.3031ZM209.556 47.1771H209.835C209.929 47.1771 210.002 47.1574 210.053 47.122C210.103 47.0866 210.131 47.0432 210.131 46.9921C210.131 46.9409 210.103 46.8976 210.053 46.8621C210.002 46.8267 209.929 46.807 209.835 46.807H209.556V47.181V47.1771Z" fill="white"/>
</g>
</g>
<defs>
<clipPath id="clip0_566_1764">
<rect width="211.719" height="50" fill="white" transform="translate(0.140625)"/>
</clipPath>
<clipPath id="clip1_566_1764">
<rect width="211.719" height="50" fill="white" transform="translate(0.140625)"/>
</clipPath>
</defs>
</svg>
